<?xml version="1.0" encoding="iso-8859-1"?>
<!-- Generator: Adobe Illustrator 19.0.0, SVG Export Plug-In . SVG Version: 6.00 Build 0)  -->
<svg version="1.1" id="Layer_1" xmlns="http://www.w3.org/2000/svg" xmlns:xlink="http://www.w3.org/1999/xlink" x="0px" y="0px"
	 viewBox="0 0 512 512" style="enable-background:new 0 0 512 512;" xml:space="preserve">
<g>
	<g>
		<path d="M433.445,52.942c-13.075-13.073-30.131-20.633-48.362-21.513c-19.443-19.944-45.774-31.32-72.792-31.32
			c-25.28,0-50.026,10.041-69.088,27.796C224.123,10.078,199.337,0,173.998,0c-26.851,0-53.147,11.418-72.692,31.432
			c-37.704,1.825-68.046,32.166-69.873,69.868c-19.947,19.444-31.325,45.776-31.325,72.796c0,25.28,10.041,50.026,27.796,69.088
			C10.078,262.264,0,287.05,0,312.39c0,26.848,11.415,53.143,31.429,72.688c0.879,18.234,8.438,35.292,21.513,48.368
			c1.533,1.532,3.61,2.392,5.778,2.392c2.168,0,4.244-0.861,5.778-2.392L433.445,64.498c1.532-1.533,2.392-3.61,2.392-5.778
			C435.837,56.552,434.977,54.476,433.445,52.942z M31.342,359.713c-9.675-14.134-15.002-30.622-15.002-47.323
			c0-16.784,5.327-33.314,15.002-47.446V359.713z M31.342,221.341c-9.592-14.092-14.893-30.539-14.893-47.245
			c0-16.787,5.301-33.277,14.893-47.368V221.341z M312.291,16.449c16.787,0,33.277,5.301,47.368,14.893h-94.612
			C279.138,21.75,295.586,16.449,312.291,16.449z M173.998,16.34c16.784,0,33.313,5.327,47.446,15.002h-94.769
			C140.81,21.667,157.296,16.34,173.998,16.34z M403.98,70.852c-6.64-4.433-14.399-6.815-22.494-6.816H259.54
			c-4.513,0-8.17,3.657-8.17,8.17s3.657,8.17,8.17,8.17h121.943c3.693,0,7.264,0.863,10.526,2.445L82.822,392.01
			c-1.583-3.263-2.445-6.834-2.445-10.525V104.902c0.001-6.48,2.572-12.619,7.24-17.286c4.667-4.668,10.805-7.239,17.284-7.24
			H226.86c4.513,0,8.17-3.657,8.17-8.17s-3.657-8.17-8.17-8.17H104.9c-10.844,0.001-21.085,4.273-28.839,12.024
			c-7.753,7.754-12.024,17.996-12.025,28.841v276.585c0,8.095,2.384,15.854,6.816,22.494l-11.73,11.729
			c-7.424-9.857-11.44-21.751-11.44-34.224V104.902c0-31.551,25.669-57.22,57.219-57.22h276.585c12.473,0,24.368,4.016,34.224,11.44
			L403.98,70.852z"/>
	</g>
</g>
<g>
	<g>
		<path d="M512,199.61c0-26.849-11.417-53.145-31.429-72.689c-0.879-18.233-8.439-35.291-21.513-48.367
			c-1.533-1.532-3.61-2.392-5.778-2.392s-4.244,0.861-5.778,2.392l-23.096,23.096c-0.045,0.045-322.669,322.671-322.669,322.671
			c-0.021,0.021-0.044,0.038-0.064,0.059s-0.038,0.044-0.059,0.065l-23.057,23.057c-3.191,3.192-3.191,8.364,0,11.555
			c13.073,13.072,30.13,20.631,48.361,21.512c19.443,19.943,45.773,31.32,72.792,31.32c25.281,0,50.026-10.04,69.088-27.795
			C287.877,501.922,312.663,512,338.002,512c26.851,0,53.147-11.418,72.692-31.432c37.704-1.825,68.047-32.166,69.873-69.868
			c19.946-19.443,31.325-45.775,31.325-72.795c0-25.28-10.041-50.026-27.796-69.088C501.922,249.736,512,224.95,512,199.61z
			 M199.709,495.55c-16.787,0-33.277-5.301-47.367-14.892h94.61C232.861,490.249,216.414,495.55,199.709,495.55z M338.002,495.66
			c-16.784,0-33.313-5.327-47.446-15.002h94.769C371.19,490.333,354.704,495.66,338.002,495.66z M464.32,407.099h-0.002
			c0,31.551-25.669,57.219-57.219,57.219H130.515c-12.473,0-24.368-4.016-34.223-11.439l11.73-11.731
			c6.64,4.432,14.397,6.814,22.491,6.814h276.585c10.844-0.001,21.085-4.272,28.84-12.025c7.752-7.753,12.023-17.995,12.024-28.84
			V285.138c0-4.513-3.657-8.17-8.17-8.17c-4.513,0-8.17,3.657-8.17,8.17v121.957c-0.001,6.48-2.571,12.618-7.24,17.285
			c-4.667,4.668-10.806,7.24-17.285,7.24H130.513c-3.691,0-7.26-0.862-10.521-2.442L429.179,119.99
			c1.582,3.262,2.442,6.831,2.443,10.522v121.944c0,4.513,3.657,8.17,8.17,8.17s8.17-3.657,8.17-8.17V130.512
			c-0.001-8.094-2.384-15.851-6.814-22.491l11.73-11.73c7.424,9.857,11.44,21.751,11.44,34.224V407.099z M480.658,152.287
			c9.675,14.136,15.002,30.622,15.002,47.323c0,16.784-5.327,33.314-15.002,47.446V152.287z M495.551,337.904
			c0,16.787-5.301,33.277-14.893,47.368v-94.612C490.25,304.751,495.551,321.198,495.551,337.904z"/>
	</g>
</g>
<g>
	<g>
		<circle cx="126.704" cy="192.087" r="8.173"/>
	</g>
</g>
<g>
	<g>
		<circle cx="159.395" cy="224.779" r="8.173"/>
	</g>
</g>
<g>
	<g>
		<circle cx="385.296" cy="383.237" r="8.173"/>
	</g>
</g>
<g>
</g>
<g>
</g>
<g>
</g>
<g>
</g>
<g>
</g>
<g>
</g>
<g>
</g>
<g>
</g>
<g>
</g>
<g>
</g>
<g>
</g>
<g>
</g>
<g>
</g>
<g>
</g>
<g>
</g>
</svg>
